<svg xmlns="http://www.w3.org/2000/svg" viewBox="0 0 24 24" fill="#00a1e1">
    <path d="M12 2.2c3.2 0 3.6 0 4.9.1 1.2.1 1.9.2 2.4.4.6.2 1 .5 1.5 1 .5.5.8.9 1 1.5.2.5.3 1.2.4 2.4.1 1.3.1 1.7.1 4.9s0 3.6-.1 4.9c-.1 1.2-.2 1.9-.4 2.4-.2.6-.5 1-1 1.5-.5.5-.9.8-1.5 1-.5.2-1.2.3-2.4.4-1.3.1-1.7.1-4.9.1s-3.6 0-4.9-.1c-1.2-.1-1.9-.2-2.4-.4-.6-.2-1-.5-1.5-1-.5-.5-.8-.9-1-1.5-.2-.5-.3-1.2-.4-2.4C2.2 15.6 2.2 15.2 2.2 12s0-3.6.1-4.9c.1-1.2.2-1.9.4-2.4.2-.6.5-1 1-1.5.5-.5.9-.8 1.5-1 .5-.2 1.2-.3 2.4-.4C8.4 2.2 8.8 2.2 12 2.2m0-2.2C8.7 0 8.3 0 7 .1 5.6.1 4.7.3 3.9.5 3 .8 2.3 1.2 1.6 1.9.9 2.6.5 3.3.2 4.2 0 5 .1 5.9.1 7.3.1 8.7 0 9.1 0 12s.1 3.3.1 4.7c0 1.4.2 2.3.4 3.1.3.9.7 1.6 1.4 2.3.7.7 1.4 1.1 2.3 1.4.8.2 1.7.4 3.1.4 1.4 0 1.8.1 4.7.1s3.3-.1 4.7-.1c1.4 0 2.3-.2 3.1-.4.9-.3 1.6-.7 2.3-1.4.7-.7 1.1-1.4 1.4-2.3.2-.8.4-1.7.4-3.1 0-1.4.1-1.8.1-4.7s-.1-3.3-.1-4.7c0-1.4-.2-2.3-.4-3.1-.3-.9-.7-1.6-1.4-2.3-.7-.7-1.4-1.1-2.3-1.4-.8-.2-1.7-.4-3.1-.4C15.3 0 14.9 0 12 0z"/>
    <path d="M12 5.8A6.2 6.2 0 1 0 18.2 12 6.2 6.2 0 0 0 12 5.8zm0 10.2a4 4 0 1 1 4-4 4 4 0 0 1-4 4z"/>
    <circle cx="18.4" cy="5.6" r="1.4"/>
</svg>